<svg width="21" height="21" viewBox="0 0 21 21" fill="none" xmlns="http://www.w3.org/2000/svg">
<g id="basil:facebook-outline">
<path id="Vector" fill-rule="evenodd" clip-rule="evenodd" d="M9.177 3.3145C10.0384 2.45297 11.2067 1.96889 12.425 1.96875H14.7875C14.9615 1.96875 15.1285 2.03789 15.2515 2.16096C15.3746 2.28403 15.4437 2.45095 15.4437 2.625V5.775C15.4437 5.94905 15.3746 6.11597 15.2515 6.23904C15.1285 6.36211 14.9615 6.43125 14.7875 6.43125H12.425C12.4078 6.43125 12.3907 6.43465 12.3748 6.44124C12.3588 6.44784 12.3444 6.4575 12.3322 6.46969C12.32 6.48188 12.3103 6.49635 12.3037 6.51227C12.2971 6.5282 12.2937 6.54526 12.2937 6.5625V8.26875H14.7875C14.8873 8.26869 14.9857 8.29139 15.0754 8.3351C15.1651 8.37882 15.2436 8.4424 15.305 8.52103C15.3665 8.59965 15.4091 8.69124 15.4298 8.78884C15.4505 8.88643 15.4487 8.98746 15.4245 9.08425L14.637 12.2343C14.6015 12.3763 14.5195 12.5023 14.4041 12.5924C14.2886 12.6825 14.1464 12.7313 14 12.7312H12.2937V18.375C12.2937 18.549 12.2246 18.716 12.1015 18.839C11.9785 18.9621 11.8115 19.0312 11.6375 19.0312H8.4875C8.31345 19.0312 8.14653 18.9621 8.02346 18.839C7.90039 18.716 7.83125 18.549 7.83125 18.375V12.7312H6.125C5.95095 12.7312 5.78403 12.6621 5.66096 12.539C5.53789 12.416 5.46875 12.249 5.46875 12.075V8.925C5.46875 8.83882 5.48572 8.75348 5.5187 8.67386C5.55168 8.59424 5.60002 8.5219 5.66096 8.46096C5.7219 8.40002 5.79424 8.35168 5.87386 8.3187C5.95348 8.28572 6.03882 8.26875 6.125 8.26875H7.83125V6.5625C7.83139 5.34422 8.31547 4.17588 9.177 3.3145ZM12.425 3.28125C11.5548 3.28125 10.7202 3.62695 10.1048 4.24231C9.48945 4.85766 9.14375 5.69226 9.14375 6.5625V8.925C9.14375 9.09905 9.07461 9.26597 8.95154 9.38904C8.82847 9.51211 8.66155 9.58125 8.4875 9.58125H6.78125V11.4187H8.4875C8.66155 11.4187 8.82847 11.4879 8.95154 11.611C9.07461 11.734 9.14375 11.901 9.14375 12.075V17.7188H10.9812V12.075C10.9812 11.901 11.0504 11.734 11.1735 11.611C11.2965 11.4879 11.4635 11.4187 11.6375 11.4187H13.4872L13.9466 9.58125H11.6375C11.4635 9.58125 11.2965 9.51211 11.1735 9.38904C11.0504 9.26597 10.9812 9.09905 10.9812 8.925V6.5625C10.9812 6.17959 11.1334 5.81237 11.4041 5.54161C11.6749 5.27086 12.0421 5.11875 12.425 5.11875H14.1312V3.28125H12.425Z" fill="#F5F5F5"/>
</g>
</svg>
