<svg width="21" height="21" viewBox="0 0 21 21" fill="none" xmlns="http://www.w3.org/2000/svg">
<g id="hugeicons:instagram">
<g id="Group">
<path id="Vector" d="M2.1875 10.5C2.1875 6.58175 2.1875 4.62175 3.40463 3.40463C4.62175 2.1875 6.58087 2.1875 10.5 2.1875C14.4183 2.1875 16.3782 2.1875 17.5954 3.40463C18.8125 4.62175 18.8125 6.58087 18.8125 10.5C18.8125 14.4183 18.8125 16.3782 17.5954 17.5954C16.3782 18.8125 14.4191 18.8125 10.5 18.8125C6.58175 18.8125 4.62175 18.8125 3.40463 17.5954C2.1875 16.3782 2.1875 14.4191 2.1875 10.5Z" stroke="#F5F5F5" stroke-width="1.5" stroke-linecap="round" stroke-linejoin="round"/>
<path id="Vector_2" d="M15.3195 5.6875H15.3107M14.4375 10.5C14.4375 11.5443 14.0227 12.5458 13.2842 13.2842C12.5458 14.0227 11.5443 14.4375 10.5 14.4375C9.45571 14.4375 8.45419 14.0227 7.71577 13.2842C6.97734 12.5458 6.5625 11.5443 6.5625 10.5C6.5625 9.45571 6.97734 8.45419 7.71577 7.71577C8.45419 6.97734 9.45571 6.5625 10.5 6.5625C11.5443 6.5625 12.5458 6.97734 13.2842 7.71577C14.0227 8.45419 14.4375 9.45571 14.4375 10.5Z" stroke="#F5F5F5" stroke-width="1.5" stroke-linecap="round" stroke-linejoin="round"/>
</g>
</g>
</svg>
